<svg width="64" height="64" viewBox="0 0 64 64" fill="none" xmlns="http://www.w3.org/2000/svg">
<rect width="64" height="64" rx="32" fill="#EFF6FF"/>
<path d="M32 20C25.6 20 20 25.1467 20 32C20 34.8267 20.9867 37.4267 22.6267 39.48L20 42.12L21.88 44L24.5067 41.3733C26.5733 43.0133 29.1733 44 32 44C35.0667 44 38.1467 42.8267 40.48 40.48C42.8267 38.1467 44 35.0667 44 32V20H32ZM41.3333 32C41.3333 34.4933 40.36 36.84 38.6 38.6C36.84 40.36 34.4933 41.3333 32 41.3333C26.8533 41.3333 22.6667 37.1467 22.6667 32C22.6667 29.4667 23.6533 27.0933 25.4667 25.3467C27.2267 23.6133 29.5467 22.6667 32 22.6667H41.3333V32Z" fill="#3B82F6"/>
<path d="M27.28 32.84L32.68 33.3733L29.4267 37.8133C29.28 38.0267 29.2933 38.32 29.48 38.5067C29.68 38.7067 30.0133 38.72 30.2267 38.52L37.1067 32.3467C37.5467 31.9467 37.3067 31.2133 36.7067 31.16L31.3067 30.6267L34.56 26.1867C34.7067 25.9733 34.6933 25.68 34.5067 25.4933C34.3067 25.2933 33.9733 25.28 33.76 25.48L26.88 31.6533C26.4533 32.0533 26.6933 32.7867 27.28 32.84Z" fill="#3B82F6"/>
</svg>
