<svg width="64" height="64" viewBox="0 0 64 64" fill="none" xmlns="http://www.w3.org/2000/svg">
<rect width="64" height="64" rx="32" fill="#EFF6FF"/>
<path d="M37.3335 21.3333H36.0002V18.6667H33.3335V21.3333H30.6668V18.6667H28.0002V21.3333H26.6668C23.7202 21.3333 21.3335 23.72 21.3335 26.6667V40C21.3335 42.9467 23.7202 45.3333 26.6668 45.3333H37.3335C40.2802 45.3333 42.6668 42.9467 42.6668 40V26.6667C42.6668 23.72 40.2802 21.3333 37.3335 21.3333ZM40.0002 40C40.0002 41.4667 38.8002 42.6667 37.3335 42.6667H26.6668C25.2002 42.6667 24.0002 41.4667 24.0002 40V26.6667C24.0002 25.2 25.2002 24 26.6668 24H37.3335C38.8002 24 40.0002 25.2 40.0002 26.6667V40Z" fill="#3B82F6"/>
<path d="M28.6668 36.72C28.6668 38.5333 30.1602 40 32.0002 40C33.8402 40 35.3335 38.5333 35.3335 36.72C35.3335 35.2667 34.7335 34.84 32.0002 31.6667C29.2402 34.8667 28.6668 35.28 28.6668 36.72Z" fill="#3B82F6"/>
<path d="M37.3335 26.6667H26.6668V29.3333H37.3335V26.6667Z" fill="#3B82F6"/>
</svg>
