<svg width="123" height="32" viewBox="0 0 123 32" fill="none" xmlns="http://www.w3.org/2000/svg">
<path fill-rule="evenodd" clip-rule="evenodd" d="M13.3159 4H4V8.79993L23.2 27.9999H4V28H28V18.7L13.3159 4Z" fill="white"/>
<path d="M28 4.0002L20.8 4.00019L20.8 11.2002L28 11.2002L28 4.0002Z" fill="white"/>
<path d="M13.5996 18.4L3.99961 18.4L13.5996 28L13.5996 18.4Z" fill="white"/>
<path d="M52.64 23.4C51.3067 23.4 50.1467 23.1733 49.16 22.72C48.1733 22.2533 47.3533 21.6467 46.7 20.9C46.0467 20.14 45.56 19.32 45.24 18.44C44.92 17.56 44.76 16.7067 44.76 15.88V15.44C44.76 14.52 44.9267 13.62 45.26 12.74C45.5933 11.8467 46.0933 11.04 46.76 10.32C47.4267 9.6 48.2467 9.02667 49.22 8.6C50.2067 8.17333 51.3467 7.96 52.64 7.96C53.92 7.96 55.0467 8.17333 56.02 8.6C57.0067 9.02667 57.8333 9.6 58.5 10.32C59.1667 11.04 59.6667 11.8467 60 12.74C60.3467 13.62 60.52 14.52 60.52 15.44V15.88C60.52 16.7067 60.3533 17.56 60.02 18.44C59.7 19.32 59.2133 20.14 58.56 20.9C57.9067 21.6467 57.0867 22.2533 56.1 22.72C55.1133 23.1733 53.96 23.4 52.64 23.4ZM52.64 19.92C53.28 19.92 53.8533 19.8133 54.36 19.6C54.8667 19.3867 55.3 19.0867 55.66 18.7C56.02 18.3133 56.2933 17.8667 56.48 17.36C56.6667 16.84 56.76 16.28 56.76 15.68C56.76 15.04 56.66 14.46 56.46 13.94C56.2733 13.42 56 12.9733 55.64 12.6C55.28 12.2267 54.8467 11.94 54.34 11.74C53.8333 11.54 53.2667 11.44 52.64 11.44C52 11.44 51.4267 11.54 50.92 11.74C50.4133 11.94 49.98 12.2267 49.62 12.6C49.26 12.9733 48.9867 13.42 48.8 13.94C48.6133 14.46 48.52 15.04 48.52 15.68C48.52 16.28 48.6133 16.84 48.8 17.36C48.9867 17.8667 49.26 18.3133 49.62 18.7C49.98 19.0867 50.4133 19.3867 50.92 19.6C51.4267 19.8133 52 19.92 52.64 19.92ZM62.7652 23V8.28H66.4852V23H62.7652ZM71.5652 23L67.4652 16.8H71.5052L75.8452 23H71.5652ZM65.5452 18.52V15.66H69.0452C69.4852 15.66 69.8652 15.5733 70.1852 15.4C70.5052 15.2267 70.7518 14.98 70.9252 14.66C71.1118 14.34 71.2052 13.9667 71.2052 13.54C71.2052 13.1 71.1118 12.72 70.9252 12.4C70.7518 12.08 70.5052 11.8333 70.1852 11.66C69.8652 11.4867 69.4852 11.4 69.0452 11.4H65.5452V8.28H68.8252C70.0918 8.28 71.1852 8.47333 72.1052 8.86C73.0252 9.23333 73.7318 9.79333 74.2252 10.54C74.7185 11.2733 74.9652 12.1867 74.9652 13.28V13.6C74.9652 14.6933 74.7118 15.6067 74.2052 16.34C73.7118 17.06 73.0052 17.6067 72.0852 17.98C71.1785 18.34 70.0918 18.52 68.8252 18.52H65.5452ZM84.4736 23.4C83.1003 23.4 81.9203 23.1733 80.9336 22.72C79.9469 22.2533 79.1403 21.6467 78.5136 20.9C77.8869 20.1533 77.4269 19.34 77.1336 18.46C76.8403 17.58 76.6936 16.72 76.6936 15.88V15.44C76.6936 14.5333 76.8469 13.64 77.1536 12.76C77.4603 11.8667 77.9203 11.06 78.5336 10.34C79.1603 9.62 79.9403 9.04667 80.8736 8.62C81.8069 8.18 82.9003 7.96 84.1536 7.96C85.5003 7.96 86.6869 8.20667 87.7136 8.7C88.7536 9.19333 89.5869 9.88 90.2136 10.76C90.8403 11.6267 91.2069 12.6333 91.3136 13.78H87.5936C87.5136 13.34 87.3203 12.9467 87.0136 12.6C86.7069 12.24 86.3069 11.96 85.8136 11.76C85.3336 11.5467 84.7803 11.44 84.1536 11.44C83.5536 11.44 83.0203 11.5467 82.5536 11.76C82.1003 11.96 81.7136 12.2533 81.3936 12.64C81.0869 13.0133 80.8536 13.46 80.6936 13.98C80.5336 14.5 80.4536 15.0667 80.4536 15.68C80.4536 16.2933 80.5403 16.8667 80.7136 17.4C80.8869 17.92 81.1403 18.38 81.4736 18.78C81.8069 19.1667 82.2269 19.4667 82.7336 19.68C83.2403 19.8933 83.8203 20 84.4736 20C85.3003 20 86.0136 19.8267 86.6136 19.48C87.2136 19.1333 87.6336 18.6733 87.8736 18.1L87.5936 20.3V17.12H90.9936V20.12C90.3803 21.1733 89.5069 21.9867 88.3736 22.56C87.2536 23.12 85.9536 23.4 84.4736 23.4ZM84.0736 17.84V15.24H92.1936V17.84H84.0736ZM94.1138 23V8.4H97.8338V23H94.1138ZM100.832 23V8.4H106.932L111.792 20.04H112.492L112.092 20.4V8.4H115.572V23H109.432L104.572 11.36H103.872L104.272 11V23H100.832ZM117.847 23V19.04H121.767V23H117.847Z" fill="white"/>
</svg>
