<svg width="56" height="56" viewBox="0 0 56 56" fill="none" xmlns="http://www.w3.org/2000/svg">
<rect width="56" height="56" rx="28" fill="#3B82F6"/>
<path d="M28 31C29.6569 31 31 29.6569 31 28C31 26.3431 29.6569 25 28 25C26.3431 25 25 26.3431 25 28C25 29.6569 26.3431 31 28 31Z" fill="white"/>
<path d="M32.125 18.625H23.875C22.4826 18.625 21.1473 19.1781 20.1627 20.1627C19.1781 21.1473 18.625 22.4826 18.625 23.875V32.125C18.625 33.5174 19.1781 34.8527 20.1627 35.8373C21.1473 36.8219 22.4826 37.375 23.875 37.375H32.125C33.5174 37.375 34.8527 36.8219 35.8373 35.8373C36.8219 34.8527 37.375 33.5174 37.375 32.125V23.875C37.375 22.4826 36.8219 21.1473 35.8373 20.1627C34.8527 19.1781 33.5174 18.625 32.125 18.625ZM28 32.5C27.11 32.5 26.24 32.2361 25.4999 31.7416C24.7599 31.2471 24.1831 30.5443 23.8425 29.7221C23.5019 28.8998 23.4128 27.995 23.5865 27.1221C23.7601 26.2492 24.1887 25.4474 24.818 24.818C25.4474 24.1887 26.2492 23.7601 27.1221 23.5865C27.995 23.4128 28.8998 23.5019 29.7221 23.8425C30.5443 24.1831 31.2471 24.7599 31.7416 25.4999C32.2361 26.24 32.5 27.11 32.5 28C32.5 29.1935 32.0259 30.3381 31.182 31.182C30.3381 32.0259 29.1935 32.5 28 32.5ZM32.875 24.25C32.6525 24.25 32.435 24.184 32.25 24.0604C32.065 23.9368 31.9208 23.7611 31.8356 23.5555C31.7505 23.35 31.7282 23.1238 31.7716 22.9055C31.815 22.6873 31.9222 22.4868 32.0795 22.3295C32.2368 22.1722 32.4373 22.065 32.6555 22.0216C32.8738 21.9782 33.1 22.0005 33.3055 22.0856C33.5111 22.1708 33.6868 22.315 33.8104 22.5C33.934 22.685 34 22.9025 34 23.125C34 23.4234 33.8815 23.7095 33.6705 23.9205C33.4595 24.1315 33.1734 24.25 32.875 24.25Z" fill="white"/>
</svg>
