<svg width="87" height="20" viewBox="0 0 87 20" fill="none" xmlns="http://www.w3.org/2000/svg">
<path d="M13.1291 11.8791H12.4707L12.2374 11.6541C13.0541 10.7041 13.5457 9.47074 13.5457 8.12907C13.5457 5.1374 11.1207 2.7124 8.12907 2.7124C5.1374 2.7124 2.7124 5.1374 2.7124 8.12907C2.7124 11.1207 5.1374 13.5457 8.12907 13.5457C9.47074 13.5457 10.7041 13.0541 11.6541 12.2374L11.8791 12.4707V13.1291L16.0457 17.2874L17.2874 16.0457L13.1291 11.8791ZM8.12907 11.8791C6.05407 11.8791 4.37907 10.2041 4.37907 8.12907C4.37907 6.05407 6.05407 4.37907 8.12907 4.37907C10.2041 4.37907 11.8791 6.05407 11.8791 8.12907C11.8791 10.2041 10.2041 11.8791 8.12907 11.8791Z" fill="white"/>
<path d="M40.752 15.692C39.9307 15.692 39.216 15.5427 38.608 15.244C38 14.9453 37.5307 14.5293 37.2 13.996C36.8693 13.4627 36.704 12.844 36.704 12.14H38.112C38.112 12.5773 38.2133 12.9827 38.416 13.356C38.6187 13.7187 38.912 14.012 39.296 14.236C39.6907 14.4493 40.176 14.556 40.752 14.556C41.5093 14.556 42.096 14.3747 42.512 14.012C42.928 13.6493 43.136 13.196 43.136 12.652C43.136 12.204 43.04 11.8467 42.848 11.58C42.656 11.3027 42.3947 11.0787 42.064 10.908C41.744 10.7373 41.3707 10.588 40.944 10.46C40.528 10.332 40.0907 10.188 39.632 10.028C38.768 9.72933 38.128 9.36133 37.712 8.924C37.296 8.476 37.088 7.89467 37.088 7.18C37.0773 6.58267 37.216 6.05467 37.504 5.596C37.792 5.12667 38.1973 4.764 38.72 4.508C39.2533 4.24133 39.8827 4.108 40.608 4.108C41.3227 4.108 41.9413 4.24133 42.464 4.508C42.9973 4.77467 43.408 5.14267 43.696 5.612C43.9947 6.08133 44.1493 6.61467 44.16 7.212H42.752C42.752 6.90267 42.672 6.59867 42.512 6.3C42.352 5.99067 42.1067 5.74 41.776 5.548C41.456 5.356 41.0507 5.26 40.56 5.26C39.952 5.24933 39.4507 5.404 39.056 5.724C38.672 6.044 38.48 6.48667 38.48 7.052C38.48 7.532 38.6133 7.9 38.88 8.156C39.1573 8.412 39.5413 8.62533 40.032 8.796C40.5227 8.956 41.088 9.14267 41.728 9.356C42.2613 9.548 42.7413 9.772 43.168 10.028C43.5947 10.284 43.9253 10.6147 44.16 11.02C44.4053 11.4253 44.528 11.9427 44.528 12.572C44.528 13.1053 44.3893 13.612 44.112 14.092C43.8347 14.5613 43.4133 14.9453 42.848 15.244C42.2933 15.5427 41.5947 15.692 40.752 15.692ZM49.922 15.692C49.1647 15.692 48.4927 15.5213 47.906 15.18C47.3193 14.828 46.8553 14.3427 46.514 13.724C46.1833 13.1053 46.018 12.3747 46.018 11.532C46.018 10.7 46.1833 9.97467 46.514 9.356C46.8447 8.72667 47.3033 8.24133 47.89 7.9C48.4873 7.548 49.1753 7.372 49.954 7.372C50.722 7.372 51.3833 7.548 51.938 7.9C52.5033 8.24133 52.9353 8.69467 53.234 9.26C53.5327 9.82533 53.682 10.4333 53.682 11.084C53.682 11.2013 53.6767 11.3187 53.666 11.436C53.666 11.5533 53.666 11.6867 53.666 11.836H47.346C47.378 12.444 47.5167 12.9507 47.762 13.356C48.018 13.7507 48.3327 14.0493 48.706 14.252C49.09 14.4547 49.4953 14.556 49.922 14.556C50.4767 14.556 50.9407 14.428 51.314 14.172C51.6873 13.916 51.9593 13.5693 52.13 13.132H53.458C53.2447 13.868 52.834 14.4813 52.226 14.972C51.6287 15.452 50.8607 15.692 49.922 15.692ZM49.922 8.508C49.282 8.508 48.7113 8.70533 48.21 9.1C47.7193 9.484 47.4367 10.0493 47.362 10.796H52.354C52.322 10.0813 52.0767 9.52133 51.618 9.116C51.1593 8.71067 50.594 8.508 49.922 8.508ZM58.1034 15.692C57.442 15.692 56.8927 15.58 56.4554 15.356C56.018 15.132 55.6927 14.8333 55.4794 14.46C55.266 14.0867 55.1594 13.6813 55.1594 13.244C55.1594 12.4333 55.4687 11.8093 56.0874 11.372C56.706 10.9347 57.5487 10.716 58.6154 10.716H60.7594V10.62C60.7594 9.92667 60.578 9.404 60.2154 9.052C59.8527 8.68933 59.3674 8.508 58.7594 8.508C58.2367 8.508 57.7834 8.64133 57.3994 8.908C57.026 9.164 56.7914 9.54267 56.6954 10.044H55.3194C55.3727 9.468 55.5647 8.98267 55.8954 8.588C56.2367 8.19333 56.658 7.89467 57.1594 7.692C57.6607 7.47867 58.194 7.372 58.7594 7.372C59.8687 7.372 60.7007 7.67067 61.2554 8.268C61.8207 8.85467 62.1034 9.63867 62.1034 10.62V15.5H60.9034L60.8234 14.076C60.5994 14.524 60.2687 14.908 59.8314 15.228C59.4047 15.5373 58.8287 15.692 58.1034 15.692ZM58.3114 14.556C58.8234 14.556 59.2607 14.4227 59.6234 14.156C59.9967 13.8893 60.2794 13.5427 60.4714 13.116C60.6634 12.6893 60.7594 12.2413 60.7594 11.772V11.756H58.7274C57.938 11.756 57.378 11.8947 57.0474 12.172C56.7274 12.4387 56.5674 12.7747 56.5674 13.18C56.5674 13.596 56.7167 13.932 57.0154 14.188C57.3247 14.4333 57.7567 14.556 58.3114 14.556ZM64.1196 15.5V7.564H65.3356L65.4476 9.084C65.693 8.56133 66.0663 8.14533 66.5676 7.836C67.069 7.52667 67.6876 7.372 68.4236 7.372V8.78H68.0556C67.5863 8.78 67.1543 8.86533 66.7596 9.036C66.365 9.196 66.0503 9.47333 65.8156 9.868C65.581 10.2627 65.4636 10.8067 65.4636 11.5V15.5H64.1196ZM73.2833 15.692C72.5259 15.692 71.8433 15.5213 71.2353 15.18C70.6379 14.828 70.1633 14.3427 69.8113 13.724C69.4699 13.0947 69.2993 12.364 69.2993 11.532C69.2993 10.7 69.4699 9.97467 69.8113 9.356C70.1633 8.72667 70.6379 8.24133 71.2353 7.9C71.8433 7.548 72.5259 7.372 73.2833 7.372C74.2219 7.372 75.0113 7.61733 75.6513 8.108C76.3019 8.59867 76.7126 9.25467 76.8833 10.076H75.5073C75.4006 9.58533 75.1393 9.20667 74.7233 8.94C74.3073 8.66267 73.8219 8.524 73.2673 8.524C72.8193 8.524 72.3979 8.636 72.0033 8.86C71.6086 9.084 71.2886 9.42 71.0433 9.868C70.7979 10.316 70.6753 10.8707 70.6753 11.532C70.6753 12.1933 70.7979 12.748 71.0433 13.196C71.2886 13.644 71.6086 13.9853 72.0033 14.22C72.3979 14.444 72.8193 14.556 73.2673 14.556C73.8219 14.556 74.3073 14.4227 74.7233 14.156C75.1393 13.8787 75.4006 13.4893 75.5073 12.988H76.8833C76.7233 13.788 76.3179 14.4387 75.6673 14.94C75.0166 15.4413 74.2219 15.692 73.2833 15.692ZM78.7603 15.5V3.98H80.1043V8.924C80.3709 8.43333 80.7496 8.05467 81.2403 7.788C81.7309 7.51067 82.2643 7.372 82.8403 7.372C83.7576 7.372 84.4936 7.66 85.0483 8.236C85.6029 8.80133 85.8802 9.676 85.8802 10.86V15.5H84.5523V11.004C84.5523 9.35067 83.8856 8.524 82.5523 8.524C81.8589 8.524 81.2776 8.77467 80.8083 9.276C80.3389 9.76667 80.1043 10.4707 80.1043 11.388V15.5H78.7603Z" fill="white" fill-opacity="0.6"/>
</svg>
