<svg width="56" height="56" viewBox="0 0 56 56" fill="none" xmlns="http://www.w3.org/2000/svg">
<rect width="56" height="56" rx="28" fill="#3B82F6"/>
<path d="M39.0346 23.2845L36.2034 26.1063C35.6409 32.6595 30.1096 37.7501 23.5002 37.7501C22.1409 37.7501 21.0159 37.5345 20.1627 37.1126C19.4784 36.7657 19.1971 36.4001 19.1221 36.2876C19.0601 36.1933 19.0201 36.0863 19.0051 35.9744C18.9902 35.8626 19.0007 35.7488 19.0358 35.6416C19.071 35.5344 19.1299 35.4364 19.2081 35.3551C19.2864 35.2738 19.3819 35.2112 19.4877 35.172C19.5065 35.1626 21.719 34.3188 23.1534 32.697C22.2638 32.0636 21.482 31.2912 20.8377 30.4095C19.5534 28.6657 18.194 25.6376 19.0096 21.1188C19.0353 20.9845 19.0967 20.8596 19.1875 20.7573C19.2782 20.655 19.3949 20.5791 19.5252 20.5376C19.656 20.4948 19.796 20.4888 19.9299 20.5202C20.0638 20.5516 20.1866 20.6192 20.2846 20.7157C20.3127 20.7532 23.4346 23.8282 27.2502 24.822V24.2501C27.2539 23.6554 27.3747 23.0673 27.6057 22.5194C27.8366 21.9714 28.1733 21.4743 28.5964 21.0564C29.0195 20.6386 29.5207 20.3081 30.0715 20.084C30.6223 19.8598 31.2119 19.7464 31.8065 19.7501C32.587 19.7612 33.3512 19.9743 34.0248 20.3686C34.6985 20.7629 35.2584 21.325 35.6502 22.0001H38.5002C38.6483 21.9996 38.7932 22.043 38.9167 22.1247C39.0401 22.2065 39.1366 22.323 39.194 22.4595C39.248 22.598 39.2617 22.749 39.2335 22.895C39.2053 23.041 39.1364 23.176 39.0346 23.2845Z" fill="white"/>
</svg>
