<svg width="56" height="56" viewBox="0 0 56 56" fill="none" xmlns="http://www.w3.org/2000/svg">
<rect width="56" height="56" rx="28" fill="#3B82F6"/>
<path d="M37.9656 22.5436C37.8795 22.198 37.7108 21.8784 37.474 21.6122C37.2373 21.3461 36.9395 21.1413 36.6063 21.0155C33.4 19.778 28.2812 19.7874 28 19.7874C27.7188 19.7874 22.6 19.778 19.3938 21.0155C19.0605 21.1413 18.7627 21.3461 18.526 21.6122C18.2892 21.8784 18.1205 22.198 18.0344 22.5436C17.7906 23.4717 17.5 25.178 17.5 27.9999C17.5 30.8217 17.7906 32.528 18.0344 33.4561C18.1205 33.8017 18.2892 34.1213 18.526 34.3875C18.7627 34.6536 19.0605 34.8584 19.3938 34.9842C22.4688 36.1749 27.2875 36.2124 27.9344 36.2124H28.0656C28.7125 36.2124 33.5312 36.1749 36.6063 34.9842C36.9395 34.8584 37.2373 34.6536 37.474 34.3875C37.7108 34.1213 37.8795 33.8017 37.9656 33.4561C38.2094 32.528 38.5 30.8217 38.5 27.9999C38.5 25.178 38.2094 23.4717 37.9656 22.5436ZM31.2062 28.3092L26.7062 31.3092C26.6466 31.3532 26.5741 31.3762 26.5 31.3749C26.4379 31.3725 26.3771 31.3565 26.3219 31.328C26.262 31.2968 26.2118 31.2496 26.1771 31.1917C26.1423 31.1338 26.1243 31.0674 26.125 30.9999V24.9999C26.1243 24.9323 26.1423 24.8659 26.1771 24.808C26.2118 24.7501 26.262 24.7029 26.3219 24.6717C26.3817 24.6398 26.449 24.6247 26.5167 24.628C26.5843 24.6313 26.6499 24.6529 26.7062 24.6905L31.2062 27.6905C31.2585 27.7234 31.3016 27.7691 31.3315 27.8232C31.3614 27.8773 31.377 27.9381 31.377 27.9999C31.377 28.0617 31.3614 28.1224 31.3315 28.1765C31.3016 28.2306 31.2585 28.2763 31.2062 28.3092Z" fill="white"/>
</svg>
